<svg width="100" height="100" viewBox="0 0 100 100" fill="none" xmlns="http://www.w3.org/2000/svg">
<path opacity="0.5" d="M55.9903 32.2702L46.2035 68.8334C46.1538 68.9993 45.9547 69.0491 45.8386 68.9329L39.2864 62.3771L44.1964 44.0541C44.2462 43.8881 44.0969 43.7387 43.931 43.7885L25.6181 48.7012L19.0992 42.1786C18.9831 42.0624 19.0328 41.8633 19.1987 41.8135L55.7249 32.0047C55.8907 31.9715 56.04 32.1209 55.9903 32.2702Z" fill="#00B37E"/>
<path opacity="0.5" d="M39.2861 62.3768L36.7648 71.8371C36.715 72.0031 36.516 72.0529 36.3998 71.9367L16.0633 51.6054C15.9472 51.4892 15.9969 51.2901 16.1628 51.2403L25.6178 48.7009L39.2861 62.3768Z" fill="#00B37E"/>
<path d="M44.1957 44.0538L39.2857 62.3768L25.6174 48.7009L43.9303 43.7882C44.0962 43.7384 44.2454 43.8878 44.1957 44.0538Z" fill="#00B37E"/>
</svg>
